<svg xmlns="http://www.w3.org/2000/svg"  viewBox="0 0 92 41" fill="none"><path d="M44.1541 22.8861C43.7437 22.4811 43.1284 22.0761 42.3079 21.7216C41.5387 21.3672 40.9233 21.114 40.4105 20.9621C39.9489 20.8102 39.2309 20.6077 38.3079 20.3545C37.4874 20.1014 36.8207 19.8988 36.4104 19.747C36.0002 19.595 35.4874 19.3925 34.9745 19.1393C34.513 18.8861 34.154 18.633 33.9489 18.2786C33.7438 17.9747 33.6412 17.6203 33.6412 17.1646C33.6412 16.4051 34.0002 15.8988 34.8207 15.4937C35.6925 15.0381 36.6669 14.8862 37.7951 14.9368C39.0771 15.0381 40.2053 15.3925 41.1284 15.9495C42.0002 16.4558 43.1284 16.3039 43.7951 15.4937C44.2053 14.9874 44.3591 14.3798 44.2053 13.7723C44.0514 13.1646 43.6412 12.6583 43.0771 12.3545C42.5643 12.1013 42.0002 11.8481 41.3848 11.6963C40.0002 11.2406 38.5643 11.0381 37.2309 11.0381C35.0258 11.0381 33.0771 11.6456 31.4361 12.8102C29.7437 14.0254 28.9232 15.6456 28.9232 17.6203V17.7216C28.9232 19.19 29.6925 20.7089 30.9746 21.8229C31.0771 21.9242 31.2309 22.0254 31.3336 22.1266C31.6925 22.4305 32.2566 22.6836 32.9745 22.9875C33.6925 23.2406 34.2053 23.4431 34.513 23.5444L36.2053 24.1013C36.9746 24.3038 37.4874 24.5064 37.7951 24.557C38.1028 24.6583 38.513 24.8102 39.0771 25.0634C39.7438 25.3166 40.0515 25.5191 40.2053 25.671C40.4105 25.8735 40.6156 26.0761 40.8207 26.3798C40.9745 26.633 41.0771 26.9368 41.0771 27.2406C41.0771 28.0508 40.7181 28.6583 39.9489 29.114C39.1284 29.6203 38.1028 29.8229 36.872 29.7722C35.6412 29.7216 34.4105 29.4685 33.1796 28.9621C32.5643 28.7089 32.1028 28.4557 31.6412 28.2026C30.7181 27.595 29.4874 27.7469 28.8207 28.6583C28.4617 29.114 28.3079 29.671 28.4105 30.228C28.513 30.7343 28.7694 31.1899 29.1797 31.4938C29.8976 32.0001 30.7694 32.4558 31.7951 32.8102C33.4873 33.4178 35.231 33.7722 37.0259 33.7722C39.4873 33.7722 41.5387 33.114 43.2309 31.8482C44.9233 30.5317 45.7951 28.9115 45.7951 26.8862C45.7951 26.0254 45.6413 25.2152 45.2823 24.5064C44.9746 23.8482 44.5643 23.2912 44.1541 22.8861Z" fill="#09090B"></path><path d="M49.3848 11.3925C48.1027 11.3925 47.0258 12.4558 47.0258 13.7216V31.0381C47.0258 32.3039 48.1027 33.3672 49.3848 33.3672C50.6668 33.3672 51.7438 32.3039 51.7438 31.0381V13.7216C51.7438 12.4558 50.7181 11.3925 49.3848 11.3925Z" fill="#09090B"></path><path d="M70.359 29.3166H59.5385L71.5385 15.2407C71.8975 14.8356 72.1026 14.2786 72.1026 13.7216C72.1026 12.4558 71.0257 11.3925 69.7437 11.3925H55.3334C54.2052 11.3925 53.2821 12.3039 53.2821 13.4179C53.2821 14.5317 54.2052 15.4431 55.3334 15.4431H65.5898L53.5898 29.4178C53.2308 29.8229 53.0257 30.3799 53.0257 30.9369C53.0257 32.2533 54.1026 33.3166 55.436 33.3166H70.3077C71.436 33.3166 72.3591 32.4052 72.3591 31.2913C72.4103 30.228 71.4872 29.3166 70.359 29.3166Z" fill="#09090B"></path><path d="M89.2821 14.1773C87.4872 12.0508 84.9744 10.9875 81.8462 10.9875C78.6666 10.9875 76.0513 12.1014 74.1026 14.228C72.2051 16.3546 71.2308 19.1394 71.2308 22.4306C71.2308 25.7217 72.2051 28.4558 74.1026 30.5825C76 32.709 78.6154 33.7723 81.8462 33.7723C85.2821 33.7723 88 32.5572 89.8973 30.1267C90.2564 29.6711 90.41 29.0635 90.3073 28.5065C90.2055 27.9495 89.8973 27.3925 89.4356 27.0888C88.5641 26.4812 87.282 26.633 86.6154 27.4939C86.1026 28.1014 85.5385 28.6078 85.0256 28.9116C84.2051 29.3672 83.2307 29.6204 82 29.6204C80.2051 29.6204 78.8205 29.1141 77.7436 28.0002C76.8718 27.0888 76.3077 25.9242 76 24.4052L75.8974 24.0508C75.7436 23.4432 75.5385 21.9748 76.0513 20.1015L76.1539 19.747C76.5129 18.4812 77.0769 17.4179 77.8974 16.6584C78.9231 15.6457 80.2565 15.1394 81.9487 15.1394C83.6411 15.1394 84.9231 15.6457 85.8975 16.6078C86.7693 17.5192 87.3333 18.7343 87.5897 20.2533H79.3333C78.5128 20.2533 77.7436 20.7597 77.4872 21.5698C77.2821 22.1774 77.3846 22.785 77.7436 23.2913C78.1026 23.7976 78.6666 24.1014 79.3333 24.1014L91.8972 24.152L91.949 23.747C91.9999 23.4432 91.9999 23.0381 91.9999 22.4811C91.9999 19.0382 91.0773 16.2533 89.2821 14.1773Z" fill="#09090B"></path><path d="M49.4362 2.63306C48.6157 2.63306 47.8978 2.93685 47.3336 3.49382C46.7696 4.05078 46.4619 4.75965 46.4619 5.56977C46.4619 6.3799 46.7696 7.03812 47.3336 7.59509C47.8978 8.15205 48.6157 8.40522 49.4362 8.40522C50.2567 8.40522 50.9234 8.15205 51.5387 7.59509C52.1029 7.03812 52.4106 6.3799 52.4106 5.56977C52.4106 4.75965 52.1029 4.05078 51.5387 3.49382C50.9234 2.93685 50.2054 2.63306 49.4362 2.63306Z" fill="#09090B"></path><path d="M16.6666 30.1772L20 32.8608H14.4615L16.6666 30.1772ZM5.53846 7.94937H11.0769L8.87179 10.6329L5.53846 7.94937ZM18.5641 0C18.0513 0 17.4871 0.253165 17.1282 0.658228L15.3846 2.78481L14.1539 4.25316H2.76923C0.153846 4.25316 -0.97436 7.49368 1.02564 9.11397L6.46153 13.519L9.53843 16L15.9487 8.00001H20.6154L10.9743 19.6456L9.7436 21.0633L8.71795 22.3291L0.615384 32.1519C0.205128 32.6582 0 33.2659 0 33.8228C0 35.1899 1.12821 36.5064 2.71795 36.5064H6.51282L5.28205 37.9747C4.82051 38.7342 4.97436 39.7469 5.69231 40.3545C6.05129 40.6583 6.46153 40.7595 6.87179 40.7595C7.43589 40.7595 7.94872 40.5064 8.3077 40.0506L10.0513 37.9241L11.2821 36.4557H22.6667C25.282 36.4557 26.4615 33.2152 24.4103 31.595L18.9743 27.1899L15.8974 24.7089L9.5897 32.8101H4.92308L14.5641 21.1646L15.7949 19.6962L16.8718 18.4304L24.9743 8.6076C26.4102 6.83544 25.1795 4.25316 22.8718 4.25316H19.077L20.3077 2.78481C20.6667 2.02532 20.5128 1.01266 19.7436 0.405064C19.4359 0.151899 19.0256 0 18.6153 0H18.5641Z" fill="#09090B"></path></svg>